<svg width="107" height="92" viewBox="0 0 107 92" fill="none" xmlns="http://www.w3.org/2000/svg">
<ellipse cx="4.22018" cy="3.5" rx="3.37948" ry="3.5" fill="#F5F6F8" fill-opacity="0.6"/>
<ellipse cx="4.22018" cy="20.5" rx="3.37948" ry="3.5" fill="#F5F6F8" fill-opacity="0.6"/>
<ellipse cx="4.22018" cy="37.5" rx="3.37948" ry="3.5" fill="#F5F6F8" fill-opacity="0.6"/>
<ellipse cx="4.22018" cy="54.5" rx="3.37948" ry="3.5" fill="#F5F6F8" fill-opacity="0.6"/>
<ellipse cx="4.22018" cy="71.5" rx="3.37948" ry="3.5" fill="#F5F6F8" fill-opacity="0.6"/>
<ellipse cx="4.22018" cy="88.5" rx="3.37948" ry="3.5" fill="#F5F6F8" fill-opacity="0.6"/>
<ellipse cx="20.6349" cy="3.5" rx="3.37948" ry="3.5" fill="#F5F6F8" fill-opacity="0.6"/>
<ellipse cx="20.6349" cy="20.5" rx="3.37948" ry="3.5" fill="#F5F6F8" fill-opacity="0.6"/>
<ellipse cx="20.6349" cy="37.5" rx="3.37948" ry="3.5" fill="#F5F6F8" fill-opacity="0.6"/>
<ellipse cx="20.6349" cy="54.5" rx="3.37948" ry="3.5" fill="#F5F6F8" fill-opacity="0.6"/>
<ellipse cx="20.6349" cy="71.5" rx="3.37948" ry="3.5" fill="#F5F6F8" fill-opacity="0.6"/>
<ellipse cx="20.6349" cy="88.5" rx="3.37948" ry="3.5" fill="#F5F6F8" fill-opacity="0.6"/>
<ellipse cx="37.0494" cy="3.5" rx="3.37948" ry="3.5" fill="#F5F6F8" fill-opacity="0.6"/>
<ellipse cx="37.0494" cy="20.5" rx="3.37948" ry="3.5" fill="#F5F6F8" fill-opacity="0.6"/>
<ellipse cx="37.0494" cy="37.5" rx="3.37948" ry="3.5" fill="#F5F6F8" fill-opacity="0.6"/>
<ellipse cx="37.0494" cy="54.5" rx="3.37948" ry="3.5" fill="#F5F6F8" fill-opacity="0.6"/>
<ellipse cx="37.0494" cy="71.5" rx="3.37948" ry="3.5" fill="#F5F6F8" fill-opacity="0.6"/>
<ellipse cx="37.0494" cy="88.5" rx="3.37948" ry="3.5" fill="#F5F6F8" fill-opacity="0.6"/>
<ellipse cx="53.4641" cy="3.5" rx="3.37948" ry="3.5" fill="#F5F6F8" fill-opacity="0.6"/>
<ellipse cx="53.4641" cy="20.5" rx="3.37948" ry="3.5" fill="#F5F6F8" fill-opacity="0.6"/>
<ellipse cx="53.4641" cy="37.5" rx="3.37948" ry="3.5" fill="#F5F6F8" fill-opacity="0.6"/>
<ellipse cx="53.4641" cy="54.5" rx="3.37948" ry="3.5" fill="#F5F6F8" fill-opacity="0.6"/>
<ellipse cx="53.4641" cy="71.5" rx="3.37948" ry="3.5" fill="#F5F6F8" fill-opacity="0.6"/>
<ellipse cx="53.4641" cy="88.5" rx="3.37948" ry="3.5" fill="#F5F6F8" fill-opacity="0.6"/>
<ellipse cx="69.8788" cy="3.5" rx="3.37948" ry="3.5" fill="#F5F6F8" fill-opacity="0.6"/>
<ellipse cx="69.8788" cy="20.5" rx="3.37948" ry="3.5" fill="#F5F6F8" fill-opacity="0.6"/>
<ellipse cx="69.8788" cy="37.5" rx="3.37948" ry="3.5" fill="#F5F6F8" fill-opacity="0.6"/>
<ellipse cx="69.8788" cy="54.5" rx="3.37948" ry="3.5" fill="#F5F6F8" fill-opacity="0.6"/>
<ellipse cx="69.8788" cy="71.5" rx="3.37948" ry="3.5" fill="#F5F6F8" fill-opacity="0.6"/>
<ellipse cx="69.8788" cy="88.5" rx="3.37948" ry="3.5" fill="#F5F6F8" fill-opacity="0.6"/>
<ellipse cx="86.2933" cy="3.5" rx="3.37948" ry="3.5" fill="#F5F6F8" fill-opacity="0.6"/>
<ellipse cx="86.2933" cy="20.5" rx="3.37948" ry="3.5" fill="#F5F6F8" fill-opacity="0.6"/>
<ellipse cx="86.2933" cy="37.5" rx="3.37948" ry="3.5" fill="#F5F6F8" fill-opacity="0.6"/>
<ellipse cx="86.2933" cy="54.5" rx="3.37948" ry="3.5" fill="#F5F6F8" fill-opacity="0.6"/>
<ellipse cx="86.2933" cy="71.5" rx="3.37948" ry="3.5" fill="#F5F6F8" fill-opacity="0.6"/>
<ellipse cx="86.2933" cy="88.5" rx="3.37948" ry="3.5" fill="#F5F6F8" fill-opacity="0.6"/>
<ellipse cx="102.708" cy="3.5" rx="3.37948" ry="3.5" fill="#F5F6F8" fill-opacity="0.6"/>
<ellipse cx="102.708" cy="20.5" rx="3.37948" ry="3.5" fill="#F5F6F8" fill-opacity="0.6"/>
<ellipse cx="102.708" cy="37.5" rx="3.37948" ry="3.5" fill="#F5F6F8" fill-opacity="0.6"/>
<ellipse cx="102.708" cy="54.5" rx="3.37948" ry="3.5" fill="#F5F6F8" fill-opacity="0.6"/>
<ellipse cx="102.708" cy="71.5" rx="3.37948" ry="3.5" fill="#F5F6F8" fill-opacity="0.6"/>
<ellipse cx="102.708" cy="88.5" rx="3.37948" ry="3.5" fill="#F5F6F8" fill-opacity="0.6"/>
</svg>
